<?xml version="1.0" encoding="UTF-8" standalone="no"?>
<svg
   xmlns:dc="http://purl.org/dc/elements/1.1/"
   xmlns:cc="http://creativecommons.org/ns#"
   xmlns:rdf="http://www.w3.org/1999/02/22-rdf-syntax-ns#"
   xmlns:svg="http://www.w3.org/2000/svg"
   xmlns="http://www.w3.org/2000/svg"
   viewBox="0 0 1056 816"
   height="816"
   width="1056"
   xml:space="preserve"
   id="svg2"
   version="1.1"><metadata
     id="metadata8"><rdf:RDF><cc:Work
         rdf:about=""><dc:format>image/svg+xml</dc:format><dc:type
           rdf:resource="http://purl.org/dc/dcmitype/StillImage" /></cc:Work></rdf:RDF></metadata><defs
     id="defs6"><clipPath
       id="clipPath18"
       clipPathUnits="userSpaceOnUse"><path
         id="path16"
         d="M 0,612 H 792 V 0 H 0 Z" /></clipPath><clipPath
       id="clipPath66"
       clipPathUnits="userSpaceOnUse"><path
         id="path64"
         d="m 155.767,280.902 c 16.75,-0.287 32.942,-1.071 47.701,-2.194 v 0 34.299 16.463 l -47.701,8.221 z" /></clipPath><linearGradient
       id="linearGradient80"
       spreadMethod="pad"
       gradientTransform="matrix(0,58.982597,58.982597,0,179.61765,278.70792)"
       gradientUnits="userSpaceOnUse"
       y2="0"
       x2="1"
       y1="0"
       x1="0"><stop
         id="stop72"
         offset="0"
         style="stop-opacity:1;stop-color:#488ca7" /><stop
         id="stop74"
         offset="0.00038061"
         style="stop-opacity:1;stop-color:#488ca7" /><stop
         id="stop76"
         offset="0.41526029"
         style="stop-opacity:1;stop-color:#6dcff6" /><stop
         id="stop78"
         offset="1"
         style="stop-opacity:1;stop-color:#6dcff6" /></linearGradient><clipPath
       id="clipPath90"
       clipPathUnits="userSpaceOnUse"><path
         id="path88"
         d="m 203.468,313.007 v -34.299 c 18.893,-1.437 35.436,-3.429 47.771,-5.651 v 0 48.182 z" /></clipPath><linearGradient
       id="linearGradient102"
       spreadMethod="pad"
       gradientTransform="matrix(0,48.181759,48.181759,0,227.35376,273.05728)"
       gradientUnits="userSpaceOnUse"
       y2="0"
       x2="1"
       y1="0"
       x1="0"><stop
         id="stop96"
         offset="0"
         style="stop-opacity:1;stop-color:#006288" /><stop
         id="stop98"
         offset="0.41503764"
         style="stop-opacity:1;stop-color:#0091c8" /><stop
         id="stop100"
         offset="1"
         style="stop-opacity:1;stop-color:#0091c8" /></linearGradient><clipPath
       id="clipPath112"
       clipPathUnits="userSpaceOnUse"><path
         id="path110"
         d="m 251.239,337.702 v -64.646 c 20.769,-3.742 29.62,-8.134 17.702,-11.611 v 0 c -38.787,-11.316 21.535,-11.824 29.758,-11.841 v 0 96.329 z" /></clipPath><linearGradient
       id="linearGradient124"
       spreadMethod="pad"
       gradientTransform="matrix(0,96.328873,96.328873,0,274.96899,249.60426)"
       gradientUnits="userSpaceOnUse"
       y2="0"
       x2="1"
       y1="0"
       x1="0"><stop
         id="stop118"
         offset="0"
         style="stop-opacity:1;stop-color:#006d63" /><stop
         id="stop120"
         offset="0.41503764"
         style="stop-opacity:1;stop-color:#0ca193" /><stop
         id="stop122"
         offset="1"
         style="stop-opacity:1;stop-color:#0ca193" /></linearGradient><clipPath
       id="clipPath134"
       clipPathUnits="userSpaceOnUse"><path
         id="path132"
         d="m 108,249.604 c 5.835,4.183 35.138,8.086 86.178,15.702 v 0 c 34.027,5.077 -38.411,15.596 -38.411,15.596 v 0 56.789 16.473 L 108,362.396 Z" /></clipPath><linearGradient
       id="linearGradient148"
       spreadMethod="pad"
       gradientTransform="matrix(0,112.79148,112.79148,0,155.63513,249.60426)"
       gradientUnits="userSpaceOnUse"
       y2="0"
       x2="1"
       y1="0"
       x1="0"><stop
         id="stop140"
         offset="0"
         style="stop-opacity:1;stop-color:#920d61" /><stop
         id="stop142"
         offset="0.00038061"
         style="stop-opacity:1;stop-color:#920d61" /><stop
         id="stop144"
         offset="0.41526029"
         style="stop-opacity:1;stop-color:#d82a91" /><stop
         id="stop146"
         offset="1"
         style="stop-opacity:1;stop-color:#d82a91" /></linearGradient></defs><g
     transform="matrix(1.3333333,0,0,-1.3333333,0,816)"
     id="g10"><g
       id="g12"><g
         clip-path="url(#clipPath18)"
         id="g14"><g
           transform="translate(361.395,299.3188)"
           id="g20"><path
             id="path22"
             style="fill:#34323c;fill-opacity:1;fill-rule:nonzero;stroke:none"
             d="m 0,0 v -24.915 c -4.246,-1.74 -9.674,-3.133 -16.425,-3.133 -7.864,0 -12.806,1.88 -16.216,5.22 -4.663,4.524 -5.498,11.275 -5.498,18.861 0,8.769 1.183,15.729 5.776,20.183 3.272,3.202 8.143,5.151 15.869,5.151 6.542,0 12.179,-1.392 16.077,-5.012 L -6.89,8.421 c -2.575,2.158 -6.055,3.202 -10.161,3.202 -3.968,0 -5.916,-0.905 -7.169,-2.366 -1.531,-1.81 -2.088,-4.803 -2.088,-12.528 0,-8.7 0.697,-11.761 2.297,-13.501 1.323,-1.462 3.41,-2.159 7.099,-2.159 2.366,0 4.942,0.279 6.751,0.836 v 9.048 h -7.934 V 0 Z" /></g><g
           transform="translate(378.8086,297.7183)"
           id="g24"><path
             id="path26"
             style="fill:#34323c;fill-opacity:1;fill-rule:nonzero;stroke:none"
             d="m 0,0 h 5.081 c 5.359,0 8.143,1.183 8.143,7.238 0,2.297 -0.418,3.619 -1.323,4.454 -0.835,0.766 -2.088,0.975 -4.175,0.975 H 0 Z m 8.352,22.271 c 4.454,0 8.352,-0.696 11.275,-2.575 3.132,-2.018 5.289,-5.22 5.289,-11.135 0,-6.612 -2.645,-11.624 -9.047,-13.293 6.054,-1.114 7.863,-7.03 9.325,-21.019 H 13.363 c -1.74,12.945 -2.715,16.286 -7.03,16.286 H 0 v -16.286 h -11.274 v 48.022 z" /></g><g
           transform="translate(429.8096,308.645)"
           id="g28"><path
             id="path30"
             style="fill:#34323c;fill-opacity:1;fill-rule:nonzero;stroke:none"
             d="M 0,0 -5.22,-18.583 H 5.221 Z m 10.162,-36.678 -2.576,9.117 H -7.655 l -2.575,-9.117 H -21.714 L -6.611,11.345 H 6.891 l 15.102,-48.023 z" /></g><g
           transform="translate(470.1621,319.9897)"
           id="g32"><path
             id="path34"
             style="fill:#34323c;fill-opacity:1;fill-rule:nonzero;stroke:none"
             d="M 0,0 15.313,-32.78 14.964,0 H 25.751 V -48.022 H 11.484 l -15.311,32.78 0.348,-32.78 H -14.267 V 0 Z" /></g><g
           transform="translate(513.3965,281.7808)"
           id="g36"><path
             id="path38"
             style="fill:#34323c;fill-opacity:1;fill-rule:nonzero;stroke:none"
             d="m 0,0 h 6.891 c 2.922,0 5.01,0.766 6.333,2.297 1.6,1.809 2.158,5.15 2.158,11.971 0,6.681 -0.558,10.161 -2.228,12.04 -1.253,1.391 -3.132,2.088 -6.194,2.088 H 0 Z m 7.517,38.209 c 6.751,0 11.274,-1.67 14.197,-4.455 4.177,-4.036 5.359,-10.369 5.359,-19 0,-8.212 -1.043,-15.59 -5.915,-20.113 -2.993,-2.784 -7.377,-4.454 -13.294,-4.454 h -19.208 v 48.022 z" /></g><g
           transform="translate(542.9346,275.7725)"
           id="g40"><path
             id="path42"
             style="fill:#34323c;fill-opacity:1;fill-rule:nonzero;stroke:none"
             d="m 0,0 3.191,4.316 c 2.904,-2.301 5.783,-3.801 9.441,-3.801 3.969,0 5.891,2 5.891,4.538 0,3.083 -3.739,4.453 -7.332,5.806 -4.482,1.662 -9.571,4.048 -9.571,9.597 0,5.516 4.438,9.638 11.727,9.638 4.363,0 8.008,-1.78 10.638,-3.839 L 20.862,22.07 c -2.296,1.69 -4.629,2.912 -7.388,2.912 -3.74,0 -5.487,-1.9 -5.487,-4.194 0,-2.874 3.465,-3.969 7.128,-5.327 4.617,-1.732 9.776,-3.781 9.776,-10.01 0,-5.525 -4.381,-10.048 -12.46,-10.048 C 7.821,-4.597 3.17,-2.633 0,0" /></g><g
           transform="translate(575.6504,282.6797)"
           id="g44"><path
             id="path46"
             style="fill:#34323c;fill-opacity:1;fill-rule:nonzero;stroke:none"
             d="m 0,0 v 17 h -4.814 v 5.039 l 5.142,0.336 0.796,9.145 h 5.567 v -9.145 h 8.69 V 17 H 6.691 V -0.041 c 0,-3.965 1.408,-6.089 4.896,-6.089 1.153,0 2.584,0.41 3.604,0.82 l 1.203,-4.977 c -1.83,-0.61 -4.089,-1.217 -6.452,-1.217 C 2.608,-11.504 0,-6.862 0,0" /></g><g
           transform="translate(614.2812,280.457)"
           id="g48"><path
             id="path50"
             style="fill:#34323c;fill-opacity:1;fill-rule:nonzero;stroke:none"
             d="m 0,0 v 8.294 c -10.008,-1.23 -13.369,-3.755 -13.369,-7.531 0,-3.334 2.266,-4.736 5.272,-4.736 2.94,0 5.277,1.435 8.097,3.973 m -19.869,0.268 c 0,7.142 6.041,10.788 19.869,12.281 -0.062,3.899 -1.48,7.42 -6.408,7.42 -3.551,0 -6.82,-1.644 -9.572,-3.399 l -2.527,4.513 c 3.343,2.145 8.006,4.327 13.284,4.327 8.169,0 11.914,-5.225 11.914,-13.953 V -8.47 H 1.189 L 0.657,-4.664 H 0.456 c -3.056,-2.576 -6.59,-4.617 -10.593,-4.617 -5.664,0 -9.732,3.687 -9.732,9.549" /></g><g
           transform="translate(624.9521,288.4863)"
           id="g52"><path
             id="path54"
             style="fill:#34323c;fill-opacity:1;fill-rule:nonzero;stroke:none"
             d="m 0,0 c 0,11.023 7.62,17.38 16.254,17.38 4.268,0 7.308,-1.701 9.67,-3.797 L 22.601,9.206 c -1.837,1.635 -3.687,2.668 -6.019,2.668 -5.654,0 -9.689,-4.78 -9.689,-11.874 0,-7.094 3.886,-11.806 9.492,-11.806 2.801,0 5.322,1.367 7.295,3.072 l 2.793,-4.443 C 23.438,-15.875 19.596,-17.311 15.729,-17.311 6.815,-17.311 0,-10.954 0,0" /></g><g
           transform="translate(655.4043,319.9897)"
           id="g56"><path
             id="path58"
             style="fill:#34323c;fill-opacity:1;fill-rule:nonzero;stroke:none"
             d="m 0,0 h 6.561 v -31.238 h 0.201 l 13.17,16.302 h 7.36 L 16.083,-28.313 28.596,-48.002 h -7.291 l -9.066,15.11 -5.678,-6.572 v -8.538 H 0 Z" /></g></g></g><g
       id="g60"><g
         clip-path="url(#clipPath66)"
         id="g62"><g
           id="g68"><g
             id="g70"><path
               id="path82"
               style="fill:url(#linearGradient80);stroke:none"
               d="m 155.767,280.902 c 16.75,-0.287 32.942,-1.071 47.701,-2.194 v 0 34.299 16.463 l -47.701,8.221 z" /></g></g></g></g><g
       id="g84"><g
         clip-path="url(#clipPath90)"
         id="g86"><g
           id="g92"><g
             id="g94"><path
               id="path104"
               style="fill:url(#linearGradient102);stroke:none"
               d="m 203.468,313.007 v -34.299 c 18.893,-1.437 35.436,-3.429 47.771,-5.651 v 0 48.182 z" /></g></g></g></g><g
       id="g106"><g
         clip-path="url(#clipPath112)"
         id="g108"><g
           id="g114"><g
             id="g116"><path
               id="path126"
               style="fill:url(#linearGradient124);stroke:none"
               d="m 251.239,337.702 v -64.646 c 20.769,-3.742 29.62,-8.134 17.702,-11.611 v 0 c -38.787,-11.316 21.535,-11.824 29.758,-11.841 v 0 96.329 z" /></g></g></g></g><g
       id="g128"><g
         clip-path="url(#clipPath134)"
         id="g130"><g
           id="g136"><g
             id="g138"><path
               id="path150"
               style="fill:url(#linearGradient148);stroke:none"
               d="m 108,249.604 c 5.835,4.183 35.138,8.086 86.178,15.702 v 0 c 34.027,5.077 -38.411,15.596 -38.411,15.596 v 0 56.789 16.473 L 108,362.396 Z" /></g></g></g></g></g></svg>