<svg id="Layer_1" data-name="Layer 1" xmlns="http://www.w3.org/2000/svg" width="211.3" height="237.3" viewBox="0 0 211.3 237.3">
  <title>apollo</title>
  <g id="Layer_2" data-name="Layer 2">
    <g>
      <polygon points="131.1 67.3 106.8 67.3 71.7 158.4 93.7 158.4 99.4 142.9 132.6 142.9 126.6 125.8 104.8 125.8 119 86.7 144.2 158.4 166.2 158.4 131.1 67.3" style="fill: #139e90"/>
      <path d="M206.3,186a5,5,0,0,0-4.1,2.1s-4.4,5-6.7,7.4A108.7,108.7,0,1,1,187,34.2a12.2,12.2,0,1,0,6.9-7.3,118.7,118.7,0,1,0,16,167.7,5,5,0,0,0-3.5-8.6Z" style="fill: #139e90"/>
    </g>
  </g>
</svg>
