<svg id="graphql" xmlns="http://www.w3.org/2000/svg" width="348.5" height="391.6" viewBox="0 0 348.5 391.6">
  <title>graphQL-logo</title>
  <path id="graphql-2" data-name="graphql" d="M31.7,298.5l-14.4-8.3L177.5,12.8l14.4,8.3ZM14.1,268H334.4v16.6H14.1ZM180.6,369.8,20.4,277.3l8.3-14.4,160.2,92.5ZM319.8,128.7,159.6,36.2l8.3-14.4,160.2,92.5Zm-291-.1-8.3-14.4L180.7,21.8,189,36.2ZM316.8,298.5,156.7,21.1l14.4-8.3L331.2,290.2ZM26.8,103.3H43.4v185H26.8Zm278.4,0h16.6v185H305.2ZM177.8,362.8l-7.2-12.6,139.3-80.4,7.3,12.6Zm166-69.1A34.9,34.9,0,1,1,331,246a35,35,0,0,1,12.8,47.7M65.2,132.8A34.9,34.9,0,1,1,52.4,85.1a35,35,0,0,1,12.8,47.7M4.8,293.7a34.9,34.9,0,1,1,47.7,12.8A35,35,0,0,1,4.8,293.7M283.4,132.8a34.9,34.9,0,1,1,47.7,12.8,35,35,0,0,1-47.7-12.8M174.3,391.6a34.9,34.9,0,1,1,34.9-34.9,34.9,34.9,0,0,1-34.9,34.9m0-321.8a34.9,34.9,0,1,1,34.9-34.9,34.9,34.9,0,0,1-34.9,34.9" style="fill: #e10098"/>
</svg>
