<?xml version="1.0" encoding="utf-8"?>
<!-- Generator: Adobe Illustrator 24.1.3, SVG Export Plug-In . SVG Version: 6.00 Build 0)  -->
<svg version="1.1" id="Layer_1" xmlns="http://www.w3.org/2000/svg" xmlns:xlink="http://www.w3.org/1999/xlink" x="0px" y="0px"
	 width="92px" height="92px" viewBox="0 0 92 92" style="enable-background:new 0 0 92 92;" xml:space="preserve">
<style type="text/css">
	.st0{fill:#018BFF;}
</style>
<g>
	<path d="M51.2101,23.0883c-10.5776,0-17.6775,6.158-17.6775,18.1127v8.5186c1.0389-0.4957,2.1964-0.7815,3.4221-0.7815
		c1.2409,0,2.4119,0.2928,3.4605,0.8001V41.201c0-7.7525,4.2749-11.7374,10.7949-11.7374c6.5206,0,10.7955,3.9849,10.7955,11.7374
		v18.6195h6.8826V41.201C68.8882,29.1743,61.7882,23.0883,51.2101,23.0883z"/>
	<path class="st0" d="M36.6818,51.0902c-1.3296,0-2.5536,0.448-3.5406,1.1938l-6.4811-4.4283
		c0.143-0.5076,0.2249-1.0406,0.2249-1.5933c0-3.2483-2.6431-5.8914-5.8914-5.8914s-5.8914,2.6431-5.8914,5.8914
		c0,3.2489,2.6431,5.8914,5.8914,5.8914c1.3296,0,2.5536-0.448,3.5406-1.1938l6.4811,4.4283
		c-0.143,0.5076-0.2249,1.0406-0.2249,1.5933s0.0819,1.0857,0.2249,1.5933l-6.4811,4.4283c-0.987-0.7458-2.211-1.1938-3.5406-1.1938
		c-3.2483,0-5.8914,2.6425-5.8914,5.8914s2.6431,5.8914,5.8914,5.8914s5.8914-2.6425,5.8914-5.8914
		c0-0.5527-0.0819-1.0857-0.2249-1.5933l6.4811-4.4283c0.987,0.7458,2.2111,1.1938,3.5406,1.1938
		c3.2483,0,5.8914-2.6425,5.8914-5.8914C42.5732,53.7327,39.9301,51.0902,36.6818,51.0902z"/>
</g>
</svg>
