<svg id="Neo4j" xmlns="http://www.w3.org/2000/svg" width="216.9" height="245.9" viewBox="0 0 216.9 245.9">
  <title>neo4j-logo</title>
  <g>
    <path d="M206.4,111.6A103.2,103.2,0,1,1,103.2,8.4,103.2,103.2,0,0,1,206.4,111.6" style="fill: #008cc1"/>
    <path d="M45.8,77.8a8.3,8.3,0,1,1-8.3-8.3,8.3,8.3,0,0,1,8.3,8.3" style="fill: #fff"/>
    <path d="M47.2,100.4a8.3,8.3,0,1,1-8.3-8.3,8.3,8.3,0,0,1,8.3,8.3" style="fill: #fff"/>
    <path d="M52.2,124.4a8.3,8.3,0,1,1-8.3-8.3,8.3,8.3,0,0,1,8.3,8.3" style="fill: #fff"/>
    <path d="M63.5,145.9a8.3,8.3,0,1,1-8.3-8.3,8.3,8.3,0,0,1,8.3,8.3" style="fill: #fff"/>
    <path d="M151.9,176a8.3,8.3,0,1,1-8.3-8.3,8.3,8.3,0,0,1,8.3,8.3" style="fill: #fff"/>
    <path d="M166.9,158.2a8.3,8.3,0,1,1-8.3-8.3,8.3,8.3,0,0,1,8.3,8.3" style="fill: #fff"/>
    <path d="M123.4,32.8a8.3,8.3,0,1,1-8.3-8.3,8.3,8.3,0,0,1,8.3,8.3" style="fill: #fff"/>
    <path d="M101.7,25.1a8.3,8.3,0,1,1-8.3-8.3,8.3,8.3,0,0,1,8.3,8.3" style="fill: #fff"/>
    <g>
      <circle cx="160.2" cy="87.1" r="55" style="fill: #66b245"/>
      <path d="M160.2,143.8a56.8,56.8,0,1,1,56.8-56.8A56.8,56.8,0,0,1,160.2,143.8Zm0-110a53.3,53.3,0,1,0,53.3,53.3A53.3,53.3,0,0,0,160.2,33.8Z" style="fill: #fff"/>
    </g>
    <g>
      <circle cx="84.8" cy="199.2" r="45" style="fill: #66b245"/>
      <path d="M84.8,245.9a46.8,46.8,0,1,1,46.8-46.7A46.8,46.8,0,0,1,84.8,245.9Zm0-90a43.3,43.3,0,1,0,43.3,43.3A43.3,43.3,0,0,0,84.8,155.9Z" style="fill: #fff"/>
    </g>
    <g>
      <circle cx="47.8" cy="31.8" r="30" style="fill: #66b245"/>
      <path d="M47.8,63.5A31.8,31.8,0,1,1,79.6,31.8,31.8,31.8,0,0,1,47.8,63.5Zm0-60A28.3,28.3,0,1,0,76.1,31.8,28.3,28.3,0,0,0,47.8,3.5Z" style="fill: #fff"/>
    </g>
  </g>
</svg>
